<?xml version="1.0" encoding="UTF-8"?><svg id="_лой_1" xmlns="http://www.w3.org/2000/svg" viewBox="0 0 160.75 154.11"><defs><style>.cls-1{fill:#1d1d1b;}</style></defs><g><path class="cls-1" d="M14.37,140.05c0,1.8-.66,3.24-1.98,4.33-1.37,1.13-3.25,1.69-5.64,1.69-3.14,0-4.99-.58-5.53-1.74-.33-.7-.66-1.6-.99-2.68-.14-.5-.04-.83,.3-.97,.43-.19,.76-.11,1.01,.26,.91,1.34,1.82,2.3,2.73,2.86,.88,.54,1.92,.81,3.1,.81,2.96,0,4.44-1.18,4.44-3.55,0-.93-.32-1.71-.97-2.37-.63-.61-1.93-1.44-3.9-2.51-2.49-1.34-4.13-2.4-4.92-3.16-.97-.95-1.45-2.12-1.45-3.52,0-1.48,.62-2.74,1.86-3.79,1.24-1.04,2.83-1.57,4.75-1.57,1.36,0,2.69,.17,3.98,.51,.99,.27,1.55,.61,1.68,1.02,.27,.86,.44,1.93,.53,3.2,.02,.46-.13,.71-.46,.77-.42,.06-.71-.08-.88-.43-.66-1.33-1.41-2.27-2.25-2.81-.78-.5-1.8-.75-3.05-.75-1.12,0-2,.26-2.65,.78-.65,.52-.97,1.26-.97,2.22,0,.89,.32,1.67,.96,2.32,.61,.61,1.73,1.32,3.36,2.14,2.51,1.26,4.25,2.32,5.19,3.2,1.18,1.08,1.77,2.32,1.77,3.74Z"/><path class="cls-1" d="M30.14,142.93c0,.46-.62,1.03-1.85,1.71-1.41,.76-2.85,1.13-4.33,1.13-1.61,0-2.96-.53-4.06-1.58-1.17-1.12-1.76-2.61-1.76-4.47,0-2.11,.66-3.8,1.97-5.08,1.23-1.19,2.73-1.79,4.51-1.79,1.05,0,2.04,.33,2.96,1.01,.82,.6,1.36,1.28,1.63,2.05,.1,.27,.24,.42,.43,.45,.28,.05,.42,.24,.42,.56,0,.44-.52,.81-1.57,1.12l-7.37,2.19c.48,2.54,1.78,3.8,3.9,3.8,1.22,0,2.62-.45,4.19-1.34,.23-.14,.46-.21,.69-.21,.17,0,.26,.15,.26,.46Zm-3.79-6.41c0-.59-.24-1.1-.71-1.54s-1.06-.66-1.75-.66c-1.96,0-2.94,1.41-2.94,4.23v.38l4.35-1.31c.7-.2,1.05-.57,1.05-1.1Z"/><path class="cls-1" d="M49.3,145.32c0,.33-.24,.48-.72,.45-2.29-.12-4.03-.14-5.21-.06-.61,.04-.94-.03-.99-.22-.02-.06-.03-.15-.03-.27,0-.21,.31-.4,.93-.58,.56-.16,.85-.71,.85-1.65v-4.25c0-2.44-1.06-3.66-3.18-3.66-.95,0-1.83,.22-2.64,.67-.77,.44-1.15,.89-1.15,1.36v5.85c0,1,.65,1.56,1.97,1.68,.5,.04,.75,.2,.75,.48s-.07,.43-.21,.48c-.06,.02-.25,.03-.54,.02-1.67-.06-3.4,.02-5.18,.26-.38,.05-.62,.07-.72,.05-.21-.04-.32-.21-.32-.5,0-.26,.3-.47,.91-.66,.56-.17,.85-.88,.85-2.12v-4.84c0-.82-.11-1.34-.32-1.57-.15-.16-.64-.38-1.49-.67-.21-.07-.32-.22-.32-.45s.22-.4,.66-.56c.6-.22,1.25-.58,1.97-1.07,.6-.4,.98-.61,1.15-.61,.29,0,.48,.33,.58,.98,.1,.65,.23,.98,.4,.98-.08,0,.46-.31,1.63-.93s2.33-.94,3.47-.94c2.76,0,4.15,1.57,4.17,4.71l.03,5.15c0,.66,.17,1.13,.51,1.42,.26,.21,.75,.39,1.49,.54,.48,.1,.72,.27,.72,.53Z"/><path class="cls-1" d="M74.49,124.84c-.18,.71-.29,1.91-.34,3.6,0,.33-.15,.5-.45,.5s-.51-.14-.62-.43c-.32-.78-.62-1.32-.91-1.63-.34-.36-.79-.58-1.36-.66-.61-.1-2.12-.14-4.54-.14-.55,0-.92,.06-1.09,.18-.11,.07-.16,.23-.16,.48v7.24c0,.25,.15,.36,.46,.35,.95-.01,2.32-.07,4.12-.19,.35-.04,.59-.16,.71-.34s.24-.67,.36-1.45c.07-.43,.32-.59,.75-.5,.36,.07,.52,.24,.46,.5-.3,1.45-.39,3.33-.29,5.66,.01,.28-.17,.43-.53,.45-.3,.03-.48-.13-.56-.48-.28-1.33-.79-2.04-1.54-2.13-.75-.09-1.97-.14-3.67-.14-.19,0-.29,.07-.29,.21v7.19c0,.53,.2,.89,.59,1.09,.31,.16,.97,.3,2,.43,.52,.05,.75,.28,.69,.69-.06,.35-.53,.49-1.41,.42-2.52-.2-4.61-.19-6.25,.03-.46,.06-.69-.12-.69-.56,0-.28,.23-.44,.69-.48,1.04-.12,1.57-1.03,1.57-2.75v-13.68c0-.7-.13-1.24-.38-1.62-.25-.38-.72-.72-1.4-1.03-.43-.19-.59-.45-.48-.78,.05-.2,.14-.31,.26-.33,.11-.03,.39-.01,.85,.06,.67,.11,2.25,.16,4.75,.16,2.94,0,5.48-.06,7.62-.19,.71-.04,1.07,.02,1.07,.18,0,.04,0,.09-.02,.13Z"/><path class="cls-1" d="M90.11,144.08c0,.22-.41,.56-1.22,1.01-.81,.45-1.47,.68-1.96,.68-.42,0-.78-.2-1.1-.61-.32-.41-.54-.61-.67-.61-.1,0-.6,.22-1.52,.66-.92,.44-1.84,.66-2.76,.66-.87,0-1.6-.26-2.19-.77-.64-.56-.96-1.33-.96-2.3,0-1.84,2.11-3.16,6.33-3.96,.72-.14,1.09-.43,1.1-.88l.03-1.02c.06-1.75-.71-2.62-2.32-2.62-.46,0-.89,.41-1.3,1.23s-1,1.26-1.77,1.33c-.87,.08-1.31-.28-1.31-1.1,0-.51,.65-1.11,1.95-1.79,1.36-.71,2.67-1.07,3.93-1.07,2.16,0,3.23,1.03,3.21,3.08l-.06,6.58c-.01,.69,.28,1.04,.88,1.04,.12,0,.34-.03,.67-.08s.52-.08,.58-.08c.31,0,.46,.21,.46,.62Zm-4.92-3.64c.01-.27-.05-.44-.18-.53-.13-.08-.34-.1-.63-.05-2.57,.46-3.85,1.29-3.85,2.51s.67,1.84,2,1.84c.53,0,1.08-.1,1.65-.3,.66-.23,.99-.52,.99-.85l.03-2.62Z"/><path class="cls-1" d="M103.4,143.55c0,.39-.55,.87-1.65,1.44-1.19,.61-2.37,.91-3.53,.91-1.81,0-3.29-.51-4.44-1.53-1.2-1.09-1.81-2.56-1.81-4.41,0-1.99,.69-3.65,2.08-4.97,1.35-1.29,3.01-1.93,4.99-1.93,1.19,0,2.23,.17,3.12,.51,.81,.32,1.21,.66,1.21,1.02,0,.25-.2,.62-.6,1.12-.4,.5-.73,.75-.98,.75-.16,0-.53-.23-1.1-.69-1.08-.85-1.92-1.28-2.52-1.28-.96,0-1.75,.36-2.36,1.09-.65,.79-.97,1.88-.97,3.26,0,1.67,.47,3.01,1.41,4.01,.85,.91,1.88,1.36,3.08,1.36s2.32-.33,3.37-.99c.1-.06,.22-.1,.38-.1,.22,0,.34,.14,.34,.43Z"/><path class="cls-1" d="M114.78,144.11c0,.51-.47,.95-1.41,1.31-.83,.32-1.67,.48-2.52,.48-2.31,0-3.47-1.23-3.47-3.69v-5.78c0-.74-.06-1.19-.18-1.35s-.51-.33-1.17-.49c-.17-.04-.26-.21-.26-.5,0-.31,.06-.5,.19-.56,1.15-.56,2.15-1.58,3-3.04,.12-.2,.35-.27,.69-.19,.23,.07,.36,.21,.37,.42l.06,2c0,.15,.03,.25,.08,.32,.07,.1,.25,.14,.51,.14h3.56c.2,0,.2,.25,0,.75-.25,.61-.61,.91-1.09,.91h-2.41c-.42,0-.67,.07-.77,.21-.07,.1-.11,.36-.11,.78v5.23c0,1.32,.12,2.16,.35,2.51,.31,.45,1.03,.67,2.16,.67,.37,0,.83-.06,1.36-.18,.53-.12,.81-.18,.85-.18,.13,0,.19,.08,.19,.24Z"/><path class="cls-1" d="M130.68,139.17c0,1.85-.69,3.42-2.06,4.71-1.37,1.28-3.08,1.92-5.11,1.92s-3.64-.56-4.83-1.69c-1.14-1.11-1.71-2.57-1.71-4.39s.72-3.47,2.16-4.76c1.4-1.25,3.06-1.87,5-1.87,2.08,0,3.7,.56,4.86,1.68,1.13,1.09,1.69,2.56,1.69,4.41Zm-2.81,.97c0-1.67-.41-3.03-1.21-4.07-.79-1.01-1.79-1.52-3-1.52-1.13,0-2.05,.4-2.76,1.19-.71,.79-1.07,1.76-1.07,2.9,0,1.83,.42,3.26,1.25,4.28,.77,.94,1.77,1.41,3,1.41,1.17,0,2.1-.39,2.78-1.17,.68-.78,1.02-1.78,1.02-3.02Z"/><path class="cls-1" d="M143.38,134.28c0,1.29-.37,1.93-1.12,1.93-.12,0-.51-.07-1.17-.22s-1.15-.22-1.45-.22c-1.19,0-1.79,.8-1.79,2.41v4.71c0,.55,.19,.95,.58,1.18,.22,.14,.78,.33,1.68,.56,.48,.12,.72,.3,.72,.54,0,.29-.04,.46-.12,.52-.08,.06-.28,.07-.6,.04-2.34-.25-4.2-.26-5.56-.03-.43,.07-.7,.07-.82,0-.1-.06-.14-.25-.14-.56,0-.29,.3-.52,.89-.69,.59-.17,.89-.68,.89-1.53v-5.13c0-.67-.09-1.12-.26-1.36s-.66-.55-1.45-.94l-.1-.05c-.21-.11-.32-.26-.32-.45,0-.21,.22-.39,.66-.54,.73-.26,1.41-.62,2.01-1.09,.5-.39,.82-.59,.96-.59,.38,0,.61,.33,.69,.99,.1,.84,.21,1.26,.33,1.26,.01,0,.61-.4,1.79-1.2,.78-.52,1.63-.78,2.56-.78,.77,0,1.15,.41,1.15,1.23Z"/><path class="cls-1" d="M160.75,133.66c0,.29-.23,.54-.69,.75-.46,.21-.82,.62-1.06,1.21-1.09,2.6-2.49,5.58-4.22,8.93-.39,.71-.94,1.77-1.64,3.16-.7,1.39-1.76,3.21-3.19,5.46-.47,.75-1.11,1.05-1.92,.91-.7-.11-1.29-.31-1.77-.6-.47-.29-.68-.57-.63-.84,.1-.45,.42-.7,.96-.75,.94-.08,1.55-.17,1.84-.25,.35-.12,.66-.34,.91-.66,.54-.7,1.21-1.75,2-3.15,.74-1.3,1.1-2.03,1.1-2.19,0-.11-.67-1.39-2-3.85-1.8-3.32-2.89-5.34-3.28-6.06-.35-.68-.73-1.08-1.13-1.18-.68-.18-1.02-.41-1.02-.69,0-.41,.22-.59,.66-.56,2.25,.17,4.31,.11,6.18-.19,.33-.05,.5,.05,.5,.32,0,.37-.26,.62-.78,.75-.79,.19-1.18,.54-1.18,1.04,0,.1,.02,.2,.06,.3,.52,1.23,1.22,2.7,2.11,4.43,.83,1.63,1.28,2.44,1.36,2.44,.1,0,.45-.67,1.05-2,.7-1.56,1.36-3.19,1.97-4.91,0-.04,.02-.09,.02-.14,0-.51-.26-.87-.77-1.07-.6-.22-.9-.42-.9-.58,0-.36,.19-.52,.56-.46,1.52,.23,2.94,.25,4.25,.06,.31-.04,.5-.04,.56,0,.06,.04,.1,.16,.1,.35Z"/></g><path d="M44.55,96.25c22.3,.04,44.6,.09,66.89,.13,14.87,.03,29.74,.06,44.62,.11,1.43,0,2.87,.13,4.38,1.27-1.63,.08-3.25,.23-4.88,.23-35.36,.01-70.72,0-106.09,.02-1.64,0-3.28,.15-4.93,.23v-1.99Z"/><path d="M45.31,40.08c19.47-7.91,39.82-3.05,59.69-4.88l.12,1.24c-1.72,.19-3.43,.48-5.15,.55-11.78,.43-23.57,.74-35.34,1.24-3.29,.14-6.65,.5-9.83,1.32-8.23,2.11-10.48,5.11-10.85,13.53-.23,5.11-.47,10.22-.76,15.33-.03,.63-.37,1.24-1.58,1.92-.09-1.59-.25-3.18-.26-4.77-.12-16.02-.12-32.05-.39-48.07-.06-3.42-1.02-6.83-1.65-10.22-.97-5.21,1.61-7.94,6.9-7.12,12.75,1.98,25.4,4.86,38.47,2.63,6.81-1.16,13.69-1.91,20.69-2.11-8.28,4.62-17.92,3.03-28.05,5.05,3.58,1.29,5.84,2.1,8.11,2.91l-.21,.93c-1.07-.15-2.15-.26-3.22-.45-11.9-2.09-23.79-4.22-35.7-6.26-2.28-.39-5.05-.18-4.01,3.04,3.54,10.97,2.56,22.21,2.63,33.4,0,.27,.26,.53,.38,.77Z"/><path d="M29.43,25.52c-4.69,0-9.38-.04-14.07,0-7.81,.09-10.82,3.13-10.76,10.86,.12,14.69,.41,29.39,.34,44.08-.03,6.66-.75,13.32-1.16,19.98l1.41,.78c1.57-2.01,3.67-3.8,4.61-6.07,2.67-6.42,6.88-7.99,13.91-7.72,21.89,.82,43.81,.55,65.72,.71,1.81,.01,3.63,0,5.45,.79-5.75,0-11.5-.01-17.25,0-19.09,.06-38.18,.23-57.27,.1-3.91-.03-6.31,1.14-7.58,4.79-.37,1.07-1.29,1.96-1.65,3.04-1.79,5.35-5.58,6.29-11.15,4.71,.35-3.74,.94-7.6,1.05-11.47,.45-17,.81-34,1.09-51,.2-11.93,3.5-15.33,15.44-15.41,3.96-.03,7.92,0,11.88,0l-.02,1.82Z"/><path d="M30.21,77.04c2.98-1.9,69.49-2.97,78.17,0H30.21Z"/></svg>